<svg width="260" height="470" viewBox="0 0 260 470" fill="none" xmlns="http://www.w3.org/2000/svg">
<path fill-rule="evenodd" clip-rule="evenodd" d="M130.434 2.25C123.882 5.554 122.771 8.656 119.922 31.598C118.575 42.452 117.472 51.599 117.472 51.925C117.472 52.251 114.651 53.53 111.202 54.767C97.4064 59.714 85.5084 70.316 79.0684 83.398C74.5864 92.503 73.5274 97.338 73.4964 108.824C73.4604 122.777 77.5784 133.885 87.1984 145.784L90.6624 150.068L86.5064 163.284C84.2204 170.553 77.6484 190.94 71.9024 208.588L61.4554 240.676L50.3104 241.885C44.1814 242.549 38.2234 243.578 37.0694 244.172C33.5734 245.969 30.4724 249.244 30.4724 251.139C30.4724 254.043 34.1364 255.198 45.1224 255.759C54.5884 256.242 55.4724 256.456 55.4724 258.264C55.4724 259.352 52.7914 268.625 49.5144 278.871C46.2374 289.117 40.0164 308.75 35.6904 322.5L27.8244 347.5L19.3984 348C9.31537 348.598 6.91837 349.945 2.89937 357.267C0.345375 361.921 0.0243725 363.498 0.000372543 371.518C-0.0426275 385.374 3.63237 391.442 13.3064 393.49C16.0854 394.078 16.5514 394.554 16.1074 396.348C15.2054 399.99 15.0814 426.559 15.9604 427.98C17.1364 429.884 16.7894 435.346 14.3794 452.847C12.9564 463.18 12.5964 468.524 13.2764 469.204C15.0344 470.962 17.1254 466.234 22.3164 448.766C25.0514 439.562 28.3434 430.377 29.6314 428.354C30.9184 426.332 35.7974 416.987 40.4724 407.589C48.2964 391.86 49.2114 390.46 51.9724 389.995C54.4514 389.577 55.1744 388.797 56.1374 385.495C56.7784 383.298 61.0244 368 65.5724 351.5C70.1214 335 77.9224 307.1 82.9084 289.5L91.9724 257.5H105.472H118.972V269.086C118.972 276.587 119.393 281.183 120.165 282.12C121.042 283.184 123.565 283.551 129.652 283.502C140.283 283.416 140.681 282.835 140.266 268L139.972 257.5H153.456H166.94L169.755 267C172.155 275.098 181.446 308.413 199.669 374.258C203.669 388.711 203.818 389.032 206.863 389.778C209.729 390.48 210.854 392.28 221.266 412.822C230.665 431.365 233.319 437.654 237.082 450.302C239.569 458.661 242.291 466.561 243.131 467.857C246.235 472.647 246.552 468.573 244.411 451.424C243.101 440.934 242.55 432.599 242.963 429.5C243.329 426.75 243.562 417.683 243.48 409.351L243.332 394.201L247.152 392.949C253.391 390.904 255.281 389.122 257.538 383.16C261.897 371.642 258.086 355.015 249.931 349.975C247.854 348.691 244.969 348 241.685 348H236.635L234.608 341.75C229.572 326.223 209.472 259.048 209.472 257.743C209.472 256.652 211.321 256.149 216.881 255.728C228.751 254.831 231.219 252.152 225.66 246.201C222.814 243.155 220.233 242.504 207.997 241.746L204.023 241.5L192.252 203.5C185.778 182.6 179.104 160.666 177.421 154.757L174.36 144.013L176.804 140.757C192.894 119.318 190.246 86.769 170.85 67.564C166.421 63.178 161.636 59.726 155.953 56.816L147.581 52.529L147.029 46.014C146.725 42.431 145.57 32.525 144.462 24C143.353 15.475 142.452 7.52 142.459 6.323C142.472 4.159 138.255 0 136.049 0C135.415 0 132.888 1.012 130.434 2.25ZM131.45 10.96C132.027 12.037 132.779 14.962 133.122 17.46C133.728 21.886 133.676 22 131.025 22C127.687 22 128.063 24.195 131.541 25.016C134.942 25.819 135.24 28.757 132.045 29.972C128.808 31.203 128.701 33 131.865 33C135.201 33 135.868 35.499 132.893 36.854C129.747 38.288 129.79 40 132.972 40C136.407 40 136.115 41.931 132.472 43.306C128.725 44.72 128.614 45.967 132.222 46.106L134.972 46.213L132.222 47.299C128.606 48.728 128.723 50 132.472 50C134.122 50 135.472 50.471 135.472 51.048C135.472 51.698 133.101 51.983 129.222 51.798L122.972 51.5L123.264 43.5C123.654 32.792 126.164 13.444 127.482 10.981C128.825 8.472 130.115 8.465 131.45 10.96ZM140.472 17.083C140.472 19.52 138.135 19.176 137.649 16.667C137.457 15.68 137.967 15 138.899 15C139.826 15 140.472 15.855 140.472 17.083ZM141.472 23.559C141.472 24.352 140.797 25 139.972 25C138.466 25 137.916 22.889 139.111 21.694C140.045 20.761 141.472 21.888 141.472 23.559ZM142.472 31C142.472 32.035 142.019 33.162 141.465 33.504C140.18 34.299 139.07 31.49 139.858 29.437C140.627 27.433 142.472 28.536 142.472 31ZM143.472 37.441C143.472 39.034 141.658 40.519 140.782 39.643C139.959 38.821 141.243 36 142.441 36C143.008 36 143.472 36.648 143.472 37.441ZM144.472 44.531C144.472 46.044 141.835 47.697 140.905 46.767C140.641 46.502 140.709 45.547 141.055 44.643C141.851 42.57 144.472 42.484 144.472 44.531ZM144.472 50.441C144.472 50.684 144.022 51.16 143.472 51.5C142.922 51.84 142.472 51.641 142.472 51.059C142.472 50.477 142.922 50 143.472 50C144.022 50 144.472 50.198 144.472 50.441ZM144.4 59.145C166.405 67.218 177.876 81.337 180.934 104.114C181.695 109.781 180.112 120.213 177.387 127.499C172.907 139.472 160.872 151.462 148.799 155.979C129.35 163.256 108.668 158.977 94.2294 144.691C83.9664 134.536 78.4724 121.817 78.4724 108.213C78.4724 79.283 100.664 56.334 128.9 56.066C134.297 56.015 137.72 56.695 144.4 59.145ZM115.959 67.757C95.2614 75.088 82.9864 94.719 86.3524 115.105C90.1664 138.196 108.86 153.194 132.027 151.748C155.659 150.274 172.472 130.602 172.472 104.424C172.472 97.08 172.119 95.562 168.919 89.167C164.81 80.953 157.137 73.461 148.472 69.203C143.66 66.838 141.596 66.468 131.972 66.241C123.476 66.04 119.831 66.385 115.959 67.757ZM140.314 71.438C148.993 74.839 152.593 77.257 158.342 83.548C175.692 102.532 169.256 133.184 145.583 144.315C125.153 153.92 100.634 143.757 92.4314 122.282C89.3354 114.175 89.3174 101.699 92.3904 93.753C94.8114 87.496 102.33 78.487 108.118 74.91C117.912 68.857 130.315 67.519 140.314 71.438ZM121.972 77.83C114.658 81.337 107.345 88.904 103.652 96.782C101.335 101.726 100.972 103.786 100.972 112C100.972 118.645 101.421 122.251 102.466 124C103.874 126.357 103.997 125.899 104.614 116C104.974 110.225 105.971 103.583 106.83 101.239C111.12 89.529 121.363 80.926 133.786 78.6C138.885 77.645 138.03 75.575 132.394 75.226C129.171 75.027 126.345 75.733 121.972 77.83ZM144.668 123.71C142.396 128.066 141.789 132 143.389 132C144.684 132 147.742 123.598 147.263 121.359C146.96 119.945 146.339 120.507 144.668 123.71ZM151.495 125.552C149.655 128.274 146.162 132.863 143.733 135.75C140.049 140.13 139.642 141 141.278 141C143.822 141 149.702 134.454 152.994 127.957C156.529 120.981 155.596 119.486 151.495 125.552ZM96.8124 155.178C97.5204 156.3 96.0674 162.857 91.6194 178.618C82.0324 212.581 83.8364 212.181 95.5294 177.75C100.612 162.782 102.257 159 103.684 159C106.026 159 105.947 160.225 103.008 169.484C96.7784 189.116 80.5884 257.449 81.8654 258.727C82.3704 259.232 83.7024 254.712 92.0964 224C103.644 181.749 109.708 162 111.134 162C111.87 162 112.472 162.425 112.472 162.944C112.472 163.783 106.425 185.321 71.3264 309.5C49.9704 385.053 50.2564 384.117 48.9624 382.823C48.6824 382.543 50.2304 374.03 52.4034 363.907C56.3204 345.656 58.2474 334.038 57.1984 335C56.7074 335.451 47.4724 368.171 47.4724 369.461C47.4724 369.757 46.9714 370 46.3584 370C45.6084 370 45.4514 368.452 45.8784 365.25C46.4784 360.74 46.4374 360.626 45.0534 363C44.2524 364.375 42.8324 368.65 41.8974 372.5C40.9634 376.35 39.7944 380.016 39.2994 380.647C38.4094 381.78 34.4664 381.36 34.4784 380.133C34.4824 379.785 35.8604 374.775 37.5414 369C41.9714 353.781 54.4514 302.929 54.4624 300.05C54.4684 298.551 54.1194 297.969 53.5644 298.55C52.4754 299.689 43.2354 328.244 37.9674 346.75C35.8924 354.038 33.8794 360 33.4924 360C33.1054 360 32.2504 358.202 31.5914 356.004C30.4664 352.247 30.7804 350.802 36.8624 331.754C40.4204 320.614 50.8254 287.65 59.9854 258.5C90.3664 161.821 92.6824 154.506 93.1704 153.697C93.8434 152.584 95.6364 153.313 96.8124 155.178ZM179.176 195.75C186.377 218.713 200.429 263.274 210.403 294.777C227.84 349.855 228.491 352.206 227.346 356.027C226.691 358.212 225.839 360 225.452 360C225.065 360 223.052 354.038 220.977 346.75C215.709 328.244 206.469 299.689 205.38 298.55C204.824 297.968 204.472 298.492 204.472 299.903C204.472 302.712 217.26 355.043 221.521 369.668C223.21 375.468 224.453 380.334 224.282 380.482C224.112 380.63 222.983 381.055 221.774 381.427C219.839 382.021 219.446 381.589 218.481 377.801C216.365 369.487 213.409 360 212.936 360C212.673 360 212.749 363.262 213.104 367.25C213.459 371.238 213.478 374.254 213.147 373.953C212.815 373.651 210.741 366.676 208.539 358.453C206.336 350.229 203.852 341.475 203.019 339L201.504 334.5L202.047 340C202.346 343.025 204.364 353.705 206.531 363.732C210.986 384.341 210.775 383 209.552 383C208.131 383 208.173 383.147 158.793 207.5C152.454 184.95 147.036 165.713 146.753 164.75C146.416 163.603 146.785 163 147.823 163C148.94 163 150.144 165.437 151.901 171.25C155.043 181.644 165.994 220.607 171.506 241C175.45 255.592 177.37 261.177 177.442 258.266C177.55 253.85 164.012 197.529 156.844 172.577C154.369 163.962 153.722 160.355 154.512 159.577C156.369 157.749 158.069 161.298 164.484 180.392C170.886 199.449 173.261 205.482 173.384 203C173.502 200.612 169.75 185.668 165.303 170.818C161.142 156.919 160.958 154 164.247 154C165.791 154 168.169 160.649 179.176 195.75ZM141.728 167.738C142.143 169.257 146.103 183.325 150.527 199C154.951 214.675 159.224 229.819 160.022 232.654C160.819 235.489 161.472 238.301 161.472 238.904C161.472 240.152 141.699 240.455 139.872 239.235C139.267 238.831 138.513 236.521 138.197 234.103C137.442 228.323 134.635 225.545 129.547 225.545C124.854 225.545 121.841 227.933 120.954 232.354C119.537 239.416 120.287 239 108.964 239C103.258 239 98.3724 238.647 98.1054 238.216C97.8394 237.785 98.4374 234.522 99.4354 230.966C112.407 184.739 117.597 166.321 117.902 165.434C118.141 164.738 122.216 164.474 129.62 164.672L140.972 164.977L141.728 167.738ZM175.889 167.643C176.726 169.825 175.614 170.839 174.433 168.971C173.25 167.101 173.225 166 174.365 166C174.856 166 175.542 166.739 175.889 167.643ZM112.972 243C112.632 243.55 111.679 244 110.854 244C110.029 244 109.632 243.55 109.972 243C110.312 242.45 111.265 242 112.09 242C112.915 242 113.312 242.45 112.972 243ZM119.472 250.5V253H106.972C99.3054 253 94.4724 252.613 94.4724 252C94.4724 251.45 96.1604 250.948 98.2224 250.884C100.285 250.82 101.179 250.561 100.21 250.308C95.8004 249.158 100.476 248 109.531 248C119.468 248 119.472 248.001 119.472 250.5ZM153.472 249.218C151.128 250.242 151.314 250.378 156.472 251.405L161.972 252.5L152.043 252.788C140.716 253.117 139.472 252.845 139.472 250.031C139.472 248.149 140.075 248.005 147.722 248.063C154.578 248.116 155.55 248.311 153.472 249.218ZM58.2244 250.25C57.7144 251.79 38.4724 252.615 38.4724 251.097C38.4724 250.016 42.7334 249.422 52.3054 249.168C56.9834 249.044 58.5304 249.327 58.2244 250.25ZM218.612 250C219.635 250 220.472 250.45 220.472 251C220.472 251.564 217.639 252 213.972 252C208.621 252 207.472 251.711 207.472 250.364C207.472 248.993 208.224 248.831 212.112 249.364C214.663 249.714 217.588 250 218.612 250ZM25.4434 351.961C26.2524 352.473 26.6544 353.151 26.3364 353.469C25.5484 354.257 22.4724 353.002 22.4724 351.893C22.4724 350.753 23.5734 350.778 25.4434 351.961ZM236.472 352C236.472 352.55 235.46 352.993 234.222 352.985C232.403 352.972 232.259 352.784 233.472 352C235.411 350.747 236.472 350.747 236.472 352ZM233.972 359C233.632 359.55 232.931 360 232.413 360C231.895 360 231.472 359.55 231.472 359C231.472 358.45 232.174 358 233.031 358C233.888 358 234.312 358.45 233.972 359ZM13.3744 362.149C13.9784 363.881 14.4724 368.556 14.4724 372.538C14.4724 378.325 14.0704 380.252 12.4724 382.139L10.4724 384.5L8.37737 382.021C6.56937 379.883 6.32837 378.504 6.62737 371.977C6.85837 366.897 7.55537 363.522 8.74537 361.706C11.0434 358.199 12.0304 358.293 13.3744 362.149ZM251.074 363.59C253.188 368.65 252.909 379.238 250.587 382.107C248.974 384.098 248.469 384.242 247.094 383.101C243.259 379.918 242.724 368.281 246.111 361.73C247.803 358.46 249.14 358.961 251.074 363.59ZM28.8904 363.607C31.3254 364.541 30.7654 366 27.9724 366C25.5444 366 24.7794 365.026 26.1394 363.667C26.9504 362.855 26.9324 362.855 28.8904 363.607ZM233.243 364.813C233.483 365.534 232.577 366 230.933 366C228.615 366 228.41 365.78 229.5 364.467C230.892 362.789 232.622 362.949 233.243 364.813ZM10.0264 369.25C10.4044 370.488 11.0964 372.175 11.5634 373C12.2304 374.179 12.4184 374.037 12.4424 372.332C12.4824 369.465 11.4914 367 10.2984 367C9.76438 367 9.64337 368.001 10.0264 369.25ZM247.079 368.582C246.745 369.452 246.486 371.139 246.502 372.332C246.526 374.037 246.714 374.179 247.381 373C248.936 370.252 249.622 367 248.646 367C248.118 367 247.413 367.712 247.079 368.582ZM30.0544 374.212C29.2104 379.489 29.0774 379.606 25.7264 378.027L22.9724 376.73L25.8974 375.494C28.8054 374.264 28.8094 374.251 26.6194 373.078C23.9014 371.624 24.7134 370 28.1594 370C30.6174 370 30.6994 370.181 30.0544 374.212ZM234.472 370.902C234.472 371.398 233.122 372.275 231.472 372.85C228.807 373.779 228.472 373.678 228.472 371.948C228.472 370.45 229.165 370 231.472 370C233.122 370 234.472 370.406 234.472 370.902ZM235.013 376.067C235.855 377.429 235.561 377.689 232.22 378.527C229.873 379.116 229.472 378.909 229.472 377.108C229.472 375.54 230.097 375 231.913 375C233.256 375 234.651 375.48 235.013 376.067ZM26.4724 382.427C26.4724 384.373 21.1454 388.518 20.6304 386.973C19.9814 385.027 22.6864 381 24.6414 381C25.6484 381 26.4724 381.642 26.4724 382.427ZM237.08 382.75C240.059 386.674 237.958 388.486 234.472 385C233.372 383.9 232.472 382.55 232.472 382C232.472 380.352 235.653 380.87 237.08 382.75ZM31.6824 386.543C31.9814 386.842 30.4914 393.929 28.3734 402.293C24.0264 419.451 24.1704 418.728 25.3454 417.45C25.8254 416.928 28.3184 409.863 30.8844 401.75C33.4504 393.637 35.8214 387 36.1514 387C36.4814 387 37.3924 387.788 38.1754 388.75C39.2104 390.023 39.7394 390.16 40.1184 389.25C40.6994 387.855 43.4724 387.522 43.4724 388.846C43.4724 390.82 26.4614 424.837 25.2754 425.236C22.9464 426.02 20.4624 424.81 19.9264 422.631C19.0494 419.065 20.8704 392.473 21.9724 392.763C22.5224 392.907 22.9864 393.896 23.0024 394.96C23.0604 398.703 24.3474 398.147 25.5754 393.847C27.2224 388.084 29.9544 384.815 31.6824 386.543ZM227.337 389.25C227.898 391.038 229.839 397.9 231.65 404.5C235.634 419.019 236.497 416.899 233.065 401.027C231.7 394.717 230.752 389.386 230.959 389.18C231.824 388.315 237.375 392.515 237.887 394.424C238.194 395.566 238.451 402.86 238.458 410.633C238.471 423.973 238.359 424.796 236.454 425.294C235.339 425.586 233.757 425.142 232.917 424.302C231.451 422.836 215.472 390.457 215.472 388.953C215.472 388.547 216.177 387.944 217.038 387.613C218.239 387.152 219.69 389.289 223.25 396.756C228.438 407.639 229.943 407.099 226.029 395.759C223.083 387.222 222.941 386 224.894 386C225.677 386 226.776 387.462 227.337 389.25ZM23.4724 431.795C23.4724 434.091 17.6484 451.005 17.5474 449C17.4474 446.997 20.3274 432.044 21.0334 430.901C21.9834 429.364 23.4724 429.91 23.4724 431.795Z" fill="#fff"/>
</svg>
